HIERARCHY
ROOT Hips
{
  OFFSET -32.5998 29.0326 120.673
  CHANNELS 6 Xposition Yposition Zposition Zrotation Xrotation Yrotation
  JOINT LeftUpLeg
  {
    OFFSET 8.64259 1.95398 -2.38835
    CHANNELS 3 Zrotation Xrotation Yrotation
    JOINT LeftLeg
    {
      OFFSET 43.7702 0 0
      CHANNELS 3 Zrotation Xrotation Yrotation
      JOINT LeftFoot
      {
        OFFSET 40.6238 0 0
        CHANNELS 3 Zrotation Xrotation Yrotation
        JOINT LeftToeBase
        {
          OFFSET 12.7242 0 0
          CHANNELS 3 Zrotation Xrotation Yrotation
          End Site
          {
            OFFSET 0 0 0
          }
        }
      }
    }
  }
  JOINT RightUpLeg
  {
    OFFSET -8.2249 1.95398 -2.59336
    CHANNELS 3 Zrotation Xrotation Yrotation
    JOINT RightLeg
    {
      OFFSET 43.5653 0 0
      CHANNELS 3 Zrotation Xrotation Yrotation
      JOINT RightFoot
      {
        OFFSET 40.6238 0 0
        CHANNELS 3 Zrotation Xrotation Yrotation
        JOINT RightToeBase
        {
          OFFSET 12.7242 0 0
          CHANNELS 3 Zrotation Xrotation Yrotation
          End Site
          {
            OFFSET 0 0 0
          }
        }
      }
    }
  }
  JOINT Spine
  {
    OFFSET 0.165834 0.87714 6.61349
    CHANNELS 3 Zrotation Xrotation Yrotation
    JOINT Spine1
    {
      OFFSET 7.38963 1.71661e-005 0
      CHANNELS 3 Zrotation Xrotation Yrotation
      JOINT Spine2
      {
        OFFSET 11.9445 1.14441e-005 0
        CHANNELS 3 Zrotation Xrotation Yrotation
        JOINT Spine3
        {
          OFFSET 14.7254 4.19617e-005 0
          CHANNELS 3 Zrotation Xrotation Yrotation
          JOINT Spine4
          {
            OFFSET 10.9679 0 0
            CHANNELS 3 Zrotation Xrotation Yrotation
            JOINT RightShoulder
            {
              OFFSET 2.46616 -1.6653 3.69651
              CHANNELS 3 Zrotation Xrotation Yrotation
              JOINT RightArm
              {
                OFFSET 13.0012 0 0
                CHANNELS 3 Zrotation Xrotation Yrotation
                JOINT RightForeArm
                {
                  OFFSET 28.7848 1.62311e-005 0
                  CHANNELS 3 Zrotation Xrotation Yrotation
                  JOINT RightHand
                  {
                    OFFSET 26.5688 1.62095e-005 0
                    CHANNELS 3 Zrotation Xrotation Yrotation
                    End Site
                    {
                      OFFSET 0 0 0
                    }
                  }
                }
              }
            }
            JOINT LeftShoulder
            {
              OFFSET 2.38034 -1.29275 -3.7523
              CHANNELS 3 Zrotation Xrotation Yrotation
              JOINT LeftArm
              {
                OFFSET 16.3182 6.07031e-005 0
                CHANNELS 3 Zrotation Xrotation Yrotation
                JOINT LeftForeArm
                {
                  OFFSET 27.0901 0 0
                  CHANNELS 3 Zrotation Xrotation Yrotation
                  JOINT LeftHand
                  {
                    OFFSET 24.5451 1.51738e-005 0
                    CHANNELS 3 Zrotation Xrotation Yrotation
                    End Site
                    {
                      OFFSET 0 0 0
                    }
                  }
                }
              }
            }
            JOINT Neck
            {
              OFFSET 5.0226 -0.0266342 0
              CHANNELS 3 Zrotation Xrotation Yrotation
              JOINT Head
              {
                OFFSET 6.69364 2.86102e-005 0
                CHANNELS 3 Zrotation Xrotation Yrotation
                End Site
                {
                  OFFSET 0 0 0
                }
              }
            }
          }
        }
      }
    }
  }
}
MOTION
Frames:	6
Frame Time:	0.0416667
304.092 86.9103 319.436 -77.7285 6.54533 -89.4437 -143.625 1.49526 118.397 2.75078 30.0627 -8.84254 -6.30518 -54.4595 -15.0995 163.078 19.4151 -34.3422 151.621 41.8559 98.7873 -62.5613 -0.213638 14.6369 90.0109 -15.911 -3.03802 18.6597 1.5038 9.10409 -5.90723 14.8682 -94.3001 -3.62805 -13.1815 -9.5875 -15.2626 -13.5888 -8.99503 -37.841 -9.71547 -13.0882 -17.8284 -9.71548 -13.0882 80.7114 -55.5676 -112.788 -13.0486 -13.005 -24.7316 -16.2949 -8.03083 -38.6904 -8.9683 -0.63191 3.17636 118.389 -84.9393 -67.3184 4.28382 -43.4557 -104.179 44.6423 -1.62322 -86.119 2.05373 0.272403 5.00047 141.016 -12.7569 -15.9416 -65.8781 25.434 6.16063 
296.766 86.1076 313.48 -74.7382 20.5849 -91.5432 -172.379 3.20699 102.775 -45.8368 46.1474 9.29262 24.975 -15.3748 -15.2116 37.8655 -42.6234 86.8549 158.972 38.0329 103.997 -62.9455 3.26113 9.11028 94.1308 -17.8637 1.99804 22.4825 0.410201 8.063 -4.46692 13.9355 -93.4888 -1.43037 -10.1376 -7.46205 -13.0807 -10.4553 -7.00744 -35.6347 -7.43854 -10.1549 -15.6221 -7.43853 -10.155 88.1949 -46.4053 -104.541 -1.01082 -6.74134 -30.3847 -58.3529 -36.5991 -64.3306 -5.07439 -10.1886 66.6447 -0.501902 -84.7184 177.472 22.0913 -29.4179 -77.6169 48.5687 -5.15845 -83.3613 3.39055 0.420805 5.63885 134.171 -3.22078 -12.9653 -58.0736 23.4873 1.4402 
290.203 83.5324 308.033 -69.5577 36.3941 -95.5687 -173.645 12.0495 99.4087 -70.2522 25.9603 3.95476 62.9159 1.37446 6.57297 -4.5143 -21.6342 2.01166 167.22 35.6717 106.59 -64.9741 2.82722 5.35072 101.621 -22.3029 5.57748 26.0462 -0.734335 7.30058 -2.19282 12.3734 -92.5924 1.95854 -5.37677 -5.17738 -9.71088 -5.59913 -4.93594 -32.207 -3.57606 -6.55016 -12.1944 -3.57605 -6.55016 95.4137 -36.429 -94.4864 17.2826 1.16472 -40.7615 132.575 30.2339 -120.735 123.056 2.6 -13.0903 -42.5096 -78.7246 136.42 26.7732 -1.49771 -51.3101 66.4316 -13.465 -84.664 -0.773589 0.0395401 5.46325 118.896 10.1386 -5.06528 -50.1331 18.4199 -5.52117 
282.329 82.8188 301.298 -65.1571 44.0305 -101.379 -172.484 33.4257 93.7741 -91.5635 7.37388 3.17194 70.9638 5.74263 8.80332 22.9784 3.92213 -13.0376 172.192 27.9987 103.261 -60.9389 -2.24293 2.77482 104.573 -26.6051 4.43389 29.6408 -2.35435 8.6567 -0.456807 10.3197 -91.8378 6.18883 -1.68732 -3.55017 -5.48552 -1.84185 -3.47261 -27.9843 -0.543229 -3.89263 -7.97159 -0.543225 -3.89262 96.5026 -22.8604 -95.2756 38.149 12.2738 -47.2109 -4.78412 -3.10438 -55.9508 1.01997 -26.356 23.8072 -71.1013 -59.9339 106.369 3.30067 29.6102 -12.709 67.9101 -21.1041 -85.7826 -3.71403 -0.153626 2.4641 87.479 16.2312 7.05549 -37.7114 9.53725 -7.82358 
273.722 82.883 292.9 -61.2722 45.8651 -108.535 -175.082 55.1054 91.1938 -95.3956 -0.0102237 3.39316 81.6808 11.5456 6.34576 23.6188 1.58904 -8.22557 173.877 18.0067 97.9484 -52.7663 -5.40829 1.05938 101.578 -27.7741 0.770946 37.1583 -4.61724 5.87241 1.21995 8.29468 -90.7184 10.2984 2.10211 -1.60821 -1.372 2.02928 -1.69918 -23.9177 2.48818 -0.901888 -3.90502 2.48821 -0.901881 93.9879 -15.1714 -103.893 42.1018 30.5769 -44.8184 -0.00176181 -22.0526 -49.0097 -14.1731 -4.34171 30.0847 -82.7026 -35.2422 88.1344 -38.4715 43.3847 40.5541 73.2528 -34.0036 -84.2674 2.93664 0.242565 2.80443 45.8811 3.95151 9.92941 -15.7257 -1.55249 -2.21734 
262.542 84.9858 280.913 -62.5194 36.9099 -111.059 175.851 68.9012 90.1285 -80.5757 4.35889 2.72438 85.7393 14.5932 2.59439 25.1429 -0.319828 -2.66987 173.071 5.35892 93.3996 -36.7067 -9.02283 1.10672 80.8393 -14.9032 -6.18321 47.5636 -8.69135 9.91949 1.80325 7.52547 -89.9692 11.8614 3.60315 -0.263756 0.195379 3.58806 -0.422269 -22.3796 3.51582 0.832666 -2.36691 3.51583 0.832684 95.6049 -7.18162 -103.253 44.6087 47.0512 -43.0021 37.4858 -27.8859 -22.2686 -33.0577 -7.7541 20.9907 -83.9351 -20.3576 83.0468 -54.1559 47.592 59.7607 75.593 -40.6274 -82.5283 5.60251 0.328872 1.64977 31.33 -7.41876 6.53339 -6.77511 -9.76239 1.59244 
